<?xml version="1.0" encoding="UTF-8" standalone="no"?>
<svg width="165px" height="43px" viewBox="0 0 165 43" version="1.1" xmlns="http://www.w3.org/2000/svg" xmlns:xlink="http://www.w3.org/1999/xlink">
    <!-- Generator: Sketch 42 (36781) - http://www.bohemiancoding.com/sketch -->
    <title>RCP-full-logo-color Copy</title>
    <desc>Created with Sketch.</desc>
    <defs>
        <polygon id="path-1" points="17.7713024 42.378463 0.00914338021 42.378463 0.00914338021 0.134206305 35.5334614 0.134206305 35.5334614 42.378463 17.7713024 42.378463"></polygon>
    </defs>
    <g id="Partner-Dashboard" stroke="none" stroke-width="1" fill="none" fill-rule="evenodd">
        <g id="Partners:-App-details" transform="translate(-18.000000, -18.000000)">
            <g id="Group-5" transform="translate(2.000000, 0.000000)">
                <g id="RCP-full-logo-color-Copy" transform="translate(16.000000, 18.000000)">
                    <g id="Group-4">
                        <mask id="mask-2" fill="white">
                            <use xlink:href="#path-1"></use>
                        </mask>
                        <g id="Clip-2"></g>
                        <path d="M31.1903558,27.4088045 L21.2545493,33.1405678 L21.2545493,21.631309 L31.1903558,15.8995457 L31.1903558,27.4088045 Z M20.919292,20.9453267 L16.6523812,18.4910344 L26.5424708,12.7897592 L30.7941426,15.2440514 L20.919292,20.9453267 Z M20.7364244,33.1405678 L10.8006179,27.4088045 L10.8158568,27.4088045 L10.8158568,15.9147897 L13.955084,17.9727367 L13.955084,21.9666781 L14.5036869,21.7380174 L15.4485028,22.6983926 L16.2561681,22.6983926 L16.5609474,23.1557141 L16.5609474,19.2837251 L20.7364244,21.631309 L20.7364244,33.1405678 Z M20.919292,9.5427762 L24.4090154,11.554991 L14.5341648,17.2562662 L11.0444413,15.2440514 L20.919292,9.5427762 Z M31.7999144,14.9391704 L21.1326375,8.78057363 C21.0716816,8.75008553 20.9954868,8.73484148 20.9345309,8.73484148 C20.8735751,8.73484148 20.7973802,8.75008553 20.7364244,8.78057363 L10.0996254,14.9239264 L10.0843864,14.9239264 C10.0691475,14.9239264 10.0539085,14.9391704 10.0539085,14.9391704 L10.0386695,14.9391704 L9.97771366,14.9544145 C9.85580192,15.0306347 9.74912915,15.1525871 9.74912915,15.2897836 L9.74912915,27.6527093 C9.74912915,27.7899058 9.85580192,27.9118582 9.97771366,27.9880785 L20.7211854,34.1619193 C20.7821413,34.1924074 20.8583361,34.2076514 20.919292,34.2076514 C20.9802478,34.2076514 21.1021596,34.1924074 21.1935934,34.1619193 L31.9523041,27.9880785 C32.0742158,27.9271022 32.2570834,27.7899058 32.2570834,27.6527093 L32.2570834,15.2897836 C32.2570834,15.1525871 32.0742158,15.0306347 31.9523041,14.9544145 L31.7999144,14.9391704 L31.7999144,14.9391704 Z" id="Fill-1" fill="#58B3C4" mask="url(#mask-2)"></path>
                        <path d="M34.1619543,34.9241219 C26.8015332,42.2869987 14.8237052,42.2869987 7.4632841,34.9241219 C0.102863027,27.561245 0.102863027,15.5794206 7.4632841,8.21654373 C13.4064812,2.27136367 22.4279497,1.02135145 29.666459,4.87809646 L27.853022,7.86593054 C27.822544,7.92690675 27.822544,7.98788296 27.853022,8.03361511 C27.8834999,8.06410321 27.9292168,8.09459132 27.9749337,8.09459132 C27.9749337,8.09459132 27.9901727,8.09459132 28.0054116,8.10983537 L35.2743989,7.14946013 C35.3201158,7.13421608 35.3505937,7.11897202 35.3810717,7.07323987 C35.4115496,7.02750772 35.4115496,6.98177556 35.3963106,6.93604341 L32.7599694,0.228660772 C32.7294914,0.182928617 32.6837745,0.137196463 32.6228187,0.137196463 C32.5771017,0.121952412 32.5161459,0.167684566 32.4856679,0.21341672 L30.6722309,3.2012508 C22.6717732,-1.12805981 12.6597719,0.243904823 6.09177707,6.82933505 C-2.03059236,14.9544145 -2.03059236,28.155763 6.09177707,36.2808424 C10.1453423,40.3510042 15.4789808,42.378463 20.8126192,42.378463 C26.1310187,42.378463 31.4646572,40.3357601 35.5334614,36.2960865 L34.1619543,34.9241219" id="Fill-3" fill="#58B3C4" mask="url(#mask-2)"></path>
                    </g>
                    <path d="M49.6295058,29.2228466 L49.6295058,12.728783 L56.5937138,12.728783 C57.3099452,12.728783 57.9652208,12.8812235 58.5595405,13.1861045 C59.1538602,13.4909855 59.6719851,13.8873309 60.0986762,14.3751405 C60.5253673,14.8629502 60.8758635,15.411736 61.104448,16.0367421 C61.3482715,16.6617482 61.4701832,17.2867543 61.4701832,17.9117604 C61.4701832,18.5215225 61.3787494,19.1007965 61.1958818,19.6495823 C61.0130142,20.1983682 60.7691907,20.7014219 60.4491724,21.1282553 C60.1291541,21.5703328 59.7481799,21.93619 59.3062499,22.2410711 C58.8643199,22.5459521 58.3614339,22.7441248 57.7975922,22.8508331 L61.8359184,29.2228466 L60.0072424,29.2228466 L56.1365448,23.1404701 L51.2600753,23.1404701 L51.2600753,29.2228466 L49.6295058,29.2228466 Z M51.2448364,21.6922852 L56.6394307,21.6922852 C57.1118387,21.6922852 57.5537687,21.5855768 57.9499818,21.3721601 C58.346195,21.1587434 58.6814523,20.8843505 58.9557537,20.5184932 C59.2300551,20.1678801 59.4586396,19.7562907 59.6110292,19.3142132 C59.7634189,18.8568916 59.8396138,18.384326 59.8396138,17.8965164 C59.8396138,17.4087067 59.7481799,16.9208971 59.5653123,16.4635756 C59.3824447,16.006254 59.1538602,15.6099087 58.8490809,15.2745395 C58.5443016,14.9391704 58.1938053,14.6647775 57.7823532,14.4513608 C57.3709011,14.2531881 56.94421,14.1464797 56.487041,14.1464797 L51.2448364,14.1464797 L51.2448364,21.6922852 L51.2448364,21.6922852 Z" id="Fill-5" fill="#60605D"></path>
                    <path d="M70.3240231,29.4515074 C69.440163,29.4515074 68.6324977,29.2838228 67.9010273,28.9484537 C67.1695569,28.6130846 66.5295203,28.155763 65.9809175,27.5764891 C65.4323146,26.9972151 65.0208625,26.3264768 64.7160832,25.5642743 C64.4113039,24.8020717 64.2589142,23.994137 64.2589142,23.125226 C64.2589142,22.2715592 64.4113039,21.4788685 64.7160832,20.7166659 C65.0208625,19.9697074 65.4323146,19.3142132 65.9656785,18.7501833 C66.4990423,18.1861534 67.139079,17.7288318 67.8857883,17.4087067 C68.6324977,17.0733376 69.424924,16.9056531 70.2935451,16.9056531 C71.1774052,16.9056531 71.9850705,17.0733376 72.7165409,17.4087067 C73.4480113,17.7440759 74.0880479,18.1861534 74.6061728,18.7654273 C75.1395366,19.3447013 75.5357498,20.0001955 75.8405291,20.747154 C76.1300695,21.4941125 76.2824592,22.2868032 76.2824592,23.125226 L76.2824592,23.4910833 C76.2824592,23.6130357 76.2672202,23.7045 76.2672202,23.7502321 L65.9047226,23.7502321 C65.9504395,24.4057264 66.1028292,25.0002444 66.3618916,25.5490302 C66.6209541,26.0978161 66.9409724,26.5703817 67.3524245,26.9819711 C67.7486376,27.3783164 68.2210456,27.6984415 68.7391705,27.9271022 C69.2572954,28.155763 69.8058982,28.2624714 70.4002179,28.2624714 C70.7811921,28.2624714 71.1774052,28.2167392 71.5583794,28.0947868 C71.9393536,27.9880785 72.3050888,27.8356379 72.6251071,27.6527093 C72.9451254,27.4697807 73.2499047,27.2411199 73.5089672,26.966727 C73.7680296,26.6923341 73.9813751,26.4026971 74.1185258,26.067328 L75.4900329,26.4331852 C75.3071653,26.8905067 75.0481028,27.2868521 74.6976066,27.6527093 C74.3623493,28.0185666 73.9661362,28.3386916 73.5089672,28.6130846 C73.0517982,28.8874775 72.5641512,29.1008942 72.0155484,29.2380907 C71.4669456,29.3752871 70.9031038,29.4515074 70.3240231,29.4515074 M74.7738014,22.530708 C74.7280845,21.8752138 74.5756949,21.2806958 74.3166324,20.7623981 C74.05757,20.2288563 73.7375517,19.7715347 73.3413385,19.3751894 C72.9451254,18.978844 72.4879564,18.6892071 71.9698315,18.4605463 C71.4517066,18.2471296 70.9031038,18.1404212 70.3087841,18.1404212 C69.7144644,18.1404212 69.1658616,18.2471296 68.6324977,18.4605463 C68.0991339,18.673963 67.6419649,18.978844 67.2457517,19.3751894 C66.8495386,19.7562907 66.5295203,20.2288563 66.3009358,20.7623981 C66.0571123,21.3111839 65.9199616,21.8904579 65.8742447,22.530708 L74.7738014,22.530708" id="Fill-6" fill="#60605D"></path>
                    <path d="M87.5135779,27.2258759 C84.2524389,27.2258759 81.6160976,24.5734109 81.6160976,21.326428 C81.6160976,18.064201 84.2676779,15.4269801 87.5135779,15.4269801 C89.7079891,15.4269801 91.597621,16.6312601 92.6033928,18.4148141 L95.0111496,17.1190698 C93.5177309,14.4818489 90.7289999,12.6830508 87.4983389,12.6830508 C82.7285422,12.6830508 78.8426056,16.5702839 78.8426056,21.341672 C78.8426056,26.1130601 82.7285422,30.0002932 87.4983389,30.0002932 C90.5308933,30.0002932 93.1977126,28.4149119 94.7520872,26.0520839 L92.4357642,24.5734109 C91.3842755,26.1435482 89.5708384,27.2258759 87.5135779,27.2258759" id="Fill-7" fill="#60605D"></path>
                    <path d="M109.01576,29.2228466 L105.907011,29.2228466 L105.907011,22.3935116 C105.907011,21.4331363 105.724143,20.73191 105.373647,20.2745884 C105.023151,19.8172669 104.520265,19.5886061 103.864989,19.5886061 C103.590688,19.5886061 103.285909,19.6495823 102.981129,19.7715347 C102.67635,19.8934871 102.371571,20.0611717 102.097269,20.2898325 C101.822968,20.5184932 101.563905,20.7776421 101.335321,21.0977672 C101.106736,21.4026482 100.939108,21.7532614 100.817196,22.1191186 L100.817196,29.2228466 L97.7084468,29.2228466 L97.7084468,12.2562174 L100.817196,12.2562174 L100.817196,19.2989691 C101.259126,18.5062785 101.868685,17.8965164 102.645872,17.469683 C103.40782,17.0428495 104.261203,16.8294328 105.19078,16.8294328 C105.983206,16.8294328 106.623243,16.9666293 107.110889,17.2410222 C107.598536,17.5154151 107.99475,17.8660283 108.269051,18.3233498 C108.543352,18.7654273 108.741459,19.2837251 108.848132,19.847755 C108.954804,20.4270289 109.01576,21.0063029 109.01576,21.6160649 L109.01576,29.2228466" id="Fill-8" fill="#60605D"></path>
                    <path d="M115.94949,29.4515074 C115.355171,29.4515074 114.806568,29.3600431 114.303682,29.1618704 C113.800796,28.9636977 113.358866,28.6893048 112.977892,28.3539357 C112.596918,28.0033225 112.307377,27.5917331 112.109271,27.1344116 C111.895925,26.67709 111.789252,26.1587923 111.789252,25.5947624 C111.789252,25.0154884 111.911164,24.4971907 112.170227,24.009381 C112.429289,23.5215714 112.779785,23.109982 113.236954,22.7746129 C113.694123,22.4239997 114.242726,22.1648508 114.882763,21.9666781 C115.522799,21.7685055 116.208553,21.6770412 116.970501,21.6770412 C117.503865,21.6770412 118.037229,21.7227733 118.555354,21.8142376 C119.073479,21.9057019 119.530648,22.0428984 119.9421,22.210583 L119.9421,21.5093566 C119.9421,20.7014219 119.713515,20.0916598 119.256346,19.6495823 C118.799177,19.2227489 118.113424,18.9940881 117.229564,18.9940881 C116.574288,18.9940881 115.94949,19.1007965 115.324693,19.3447013 C114.699895,19.5733621 114.075097,19.9239752 113.419822,20.3660527 L112.475006,18.3995701 C114.044619,17.3629746 115.736145,16.8446768 117.534343,16.8446768 C119.286824,16.8446768 120.643092,17.2715103 121.603147,18.1251772 C122.578441,18.978844 123.050849,20.2288563 123.050849,21.8599698 L123.050849,25.6404945 C123.050849,25.9606196 123.111805,26.2045244 123.218478,26.3417209 C123.340389,26.4789174 123.523257,26.5551376 123.797558,26.5703817 L123.797558,29.2228466 C123.264194,29.329555 122.807025,29.3905312 122.426051,29.3905312 C121.831732,29.3905312 121.389802,29.2533347 121.069783,28.9941858 C120.749765,28.735037 120.551658,28.3844238 120.475464,27.9423463 L120.399269,27.271608 C119.850666,27.9880785 119.19539,28.5216203 118.418203,28.9027215 C117.671494,29.2685788 116.83335,29.4515074 115.94949,29.4515074 M116.83335,27.1801437 C117.351475,27.1801437 117.854361,27.0886794 118.326769,26.9057508 C118.799177,26.7228222 119.164912,26.4636733 119.423975,26.1587923 C119.759232,25.8996434 119.9421,25.5947624 119.9421,25.2746373 L119.9421,23.8874286 C119.576364,23.7502321 119.164912,23.6282797 118.738221,23.5520595 C118.296291,23.4605952 117.884839,23.4301071 117.488626,23.4301071 C116.680961,23.4301071 116.025685,23.6130357 115.50756,23.9788929 C114.989435,24.3447502 114.745612,24.8020717 114.745612,25.3661016 C114.745612,25.8996434 114.943718,26.3264768 115.355171,26.67709 C115.751384,26.9972151 116.25427,27.1801437 116.83335,27.1801437" id="Fill-9" fill="#60605D"></path>
                    <path d="M134.129578,19.7410466 C133.184762,19.7562907 132.346619,19.9392193 131.599909,20.2898325 C130.8532,20.6404457 130.319836,21.1587434 129.999818,21.8599698 L129.999818,29.2228466 L126.891069,29.2228466 L126.891069,17.0580936 L129.740755,17.0580936 L129.740755,19.6648264 C129.954101,19.253237 130.213163,18.8721357 130.502704,18.5367666 C130.792244,18.2013974 131.112263,17.9117604 131.44752,17.6678556 C131.782777,17.4239508 132.133273,17.2257781 132.48377,17.1038257 C132.834266,16.9666293 133.169523,16.9056531 133.489541,16.9056531 L133.870516,16.9056531 C133.94671,16.9056531 134.038144,16.9056531 134.114339,16.9361412 L134.114339,19.7410466 L134.129578,19.7410466" id="Fill-10" fill="#60605D"></path>
                    <path d="M141.413804,29.2838228 C140.5909,29.2838228 139.844191,29.1161383 139.188915,28.7960132 C138.5184,28.4758881 137.93932,28.0185666 137.466912,27.4545366 C136.979265,26.8905067 136.598291,26.2350125 136.339228,25.488054 C136.080166,24.7410955 135.943015,23.9484048 135.943015,23.109982 C135.943015,22.225827 136.080166,21.4026482 136.369706,20.6556897 C136.644008,19.8934871 137.040221,19.2227489 137.527868,18.658719 C138.015515,18.079445 138.625073,17.6373675 139.310827,17.3172424 C140.011819,16.9818733 140.773768,16.8294328 141.611911,16.8294328 C142.556727,16.8294328 143.379631,17.0428495 144.095862,17.469683 C144.812094,17.8965164 145.391175,18.4605463 145.863583,19.1770167 L145.863583,17.0428495 L148.576119,17.0428495 L148.576119,28.6283286 C148.576119,29.5277276 148.40849,30.3356624 148.073233,31.0521328 C147.722737,31.7686032 147.265568,32.3631212 146.671248,32.8661749 C146.076928,33.3539846 145.360697,33.7350858 144.537792,34.0094788 C143.714888,34.2686276 142.815789,34.4058241 141.840495,34.4058241 C140.514705,34.4058241 139.387022,34.1771633 138.487923,33.7350858 C137.588823,33.2930084 136.811636,32.6680022 136.156361,31.8600675 L137.847886,30.21371 C138.320294,30.7929839 138.899375,31.2350614 139.600367,31.5551865 C140.30136,31.8905556 141.048069,32.0429961 141.840495,32.0429961 C142.312903,32.0429961 142.785311,31.9820199 143.227241,31.8448235 C143.669171,31.707627 144.065384,31.5094543 144.400642,31.2350614 C144.735899,30.9606685 145.0102,30.5948112 145.193068,30.1679778 C145.391175,29.7411444 145.482608,29.2228466 145.482608,28.6283286 L145.482608,27.1039235 C145.086395,27.8051498 144.522553,28.3386916 143.791083,28.7197929 C143.029135,29.1008942 142.251947,29.2838228 141.413804,29.2838228 M142.450054,26.7990424 C142.785311,26.7990424 143.120569,26.7380662 143.425348,26.6313579 C143.730127,26.5246495 144.019668,26.372209 144.27873,26.1892804 C144.537792,26.0063518 144.781616,25.792935 144.979722,25.5337862 C145.177829,25.2898813 145.330219,25.0154884 145.436892,24.7410955 L145.436892,21.8599698 C145.16259,21.1434994 144.72066,20.5794694 144.12634,20.137392 C143.532021,19.7105585 142.907223,19.4818977 142.251947,19.4818977 C141.7643,19.4818977 141.337609,19.5886061 140.956635,19.8020228 C140.575661,20.0154395 140.240404,20.2898325 139.950863,20.6404457 C139.676562,20.9910588 139.463216,21.3874042 139.310827,21.8447257 C139.173676,22.2868032 139.097481,22.7593688 139.097481,23.2319344 C139.097481,23.7349881 139.188915,24.1923096 139.356544,24.6191431 C139.524172,25.0459765 139.767996,25.4270778 140.072775,25.7624469 C140.377554,26.0978161 140.728051,26.3417209 141.124264,26.5246495 C141.535716,26.7075781 141.977646,26.7990424 142.450054,26.7990424" id="Fill-11" fill="#60605D"></path>
                    <path d="M157.903128,29.4515074 C156.927835,29.4515074 156.043975,29.2838228 155.251548,28.9484537 C154.459122,28.6130846 153.788607,28.155763 153.224766,27.5917331 C152.676163,27.0124592 152.233471,26.3569649 151.928691,25.5947624 C151.623912,24.8325598 151.471522,24.0398691 151.471522,23.2014463 C151.471522,22.3325354 151.623912,21.5246006 151.913452,20.747154 C152.202993,19.9849514 152.630446,19.2989691 153.194288,18.7196952 C153.758129,18.1404212 154.428644,17.6830997 155.22107,17.3324865 C156.013497,16.9971174 156.912596,16.8141887 157.903128,16.8141887 C158.893661,16.8141887 159.777521,16.9818733 160.569948,17.3324865 C161.347135,17.6678556 162.01765,18.1251772 162.566252,18.7044511 C163.114855,19.2837251 163.526307,19.9392193 163.815848,20.7014219 C164.105388,21.4636244 164.242539,22.2410711 164.242539,23.0642498 C164.242539,23.2624225 164.242539,23.4605952 164.2273,23.6435238 C164.212061,23.8264524 164.196822,23.9788929 164.166344,24.1008453 L154.763901,24.1008453 C154.809618,24.588655 154.93153,25.0154884 155.114398,25.3813457 C155.297265,25.7472029 155.541089,26.067328 155.830629,26.3264768 C156.120169,26.5856257 156.455427,26.7990424 156.821162,26.9362389 C157.186897,27.0734354 157.58311,27.1496556 157.979323,27.1496556 C158.604121,27.1496556 159.183202,26.9972151 159.731805,26.6923341 C160.280407,26.387453 160.661382,25.9911077 160.859488,25.488054 L163.526307,26.2350125 C163.084377,27.1648997 162.352907,27.9271022 161.377613,28.5216203 C160.448036,29.1618704 159.274636,29.4515074 157.903128,29.4515074 M161.072834,22.1038746 C160.996639,21.1892315 160.661382,20.457517 160.067062,19.9087312 C159.472742,19.3599453 158.741272,19.0855524 157.88789,19.0855524 C157.476437,19.0855524 157.080224,19.1617727 156.714489,19.3142132 C156.348754,19.4666537 156.028736,19.6648264 155.754434,19.9239752 C155.478609,20.1831241 155.250024,20.5032492 155.068681,20.8691064 C154.885813,21.2349637 154.777616,21.646553 154.748662,22.1038746 L161.072834,22.1038746" id="Fill-12" fill="#60605D"></path>
                </g>
            </g>
        </g>
    </g>
</svg>