<?xml version="1.0" encoding="utf-8"?>
<svg version="1.1" id="logo__grey" xmlns="http://www.w3.org/2000/svg" xmlns:xlink="http://www.w3.org/1999/xlink" x="0px" y="0px"
	 viewBox="-551.482 489.4 134.082 34.476" style="enable-background:new -551.482 489.4 134.082 34.476;" xml:space="preserve">
<style type="text/css">
	.st0{fill:#424242;}
</style>
<g>
	<path class="st0" d="M-525.522,501.482l-8.708-5.026c-0.05-0.025-0.112-0.037-0.162-0.037s-0.112,0.012-0.162,0.037l-8.684,5.014
		h-0.012c-0.012,0-0.025,0.012-0.025,0.012h-0.012l-0.05,0.012c-0.1,0.062-0.187,0.162-0.187,0.274v10.089
		c0,0.112,0.087,0.211,0.187,0.274l8.771,5.039c0.05,0.025,0.112,0.037,0.162,0.037s0.149-0.012,0.224-0.037l8.783-5.039
		c0.1-0.05,0.249-0.162,0.249-0.274v-10.089c0-0.112-0.149-0.211-0.249-0.274L-525.522,501.482z M-534.404,497.078l2.849,1.642
		l-8.062,4.653l-2.849-1.642L-534.404,497.078z M-534.554,516.336l-8.111-4.678h0.012v-9.38l2.563,1.679v3.259l0.448-0.187
		l0.771,0.784h0.659l0.249,0.373v-3.16l3.409,1.916V516.336z M-534.404,506.384l-3.483-2.003l8.074-4.653l3.471,2.003
		L-534.404,506.384z M-526.019,511.659l-8.111,4.678v-9.393l8.111-4.678V511.659z"/>
	<path class="st0" d="M-545.39,517.792c-6.009-6.009-6.009-15.787,0-21.796c4.852-4.852,12.217-5.872,18.126-2.725l-1.48,2.438
		c-0.025,0.05-0.025,0.1,0,0.137c0.025,0.025,0.062,0.05,0.099,0.05c0,0,0.012,0,0.025,0.012l5.934-0.784
		c0.037-0.012,0.062-0.025,0.087-0.062c0.025-0.037,0.025-0.075,0.012-0.112l-2.152-5.474c-0.025-0.037-0.062-0.075-0.112-0.075
		c-0.037-0.012-0.087,0.025-0.112,0.062l-1.48,2.438c-6.531-3.533-14.705-2.413-20.067,2.961c-6.631,6.631-6.631,17.404,0,24.035
		c3.309,3.322,7.663,4.976,12.018,4.976c4.342,0,8.696-1.667,12.018-4.964l-1.12-1.12
		C-529.602,523.801-539.381,523.801-545.39,517.792z"/>
</g>
<g>
	<path class="st0" d="M-503.066,507.441c0.361-0.249,0.672-0.547,0.933-0.908c0.261-0.348,0.46-0.759,0.61-1.207
		c0.149-0.448,0.224-0.921,0.224-1.418c0-0.51-0.1-1.02-0.299-1.53c-0.187-0.51-0.473-0.958-0.821-1.356
		c-0.348-0.398-0.771-0.722-1.257-0.97c-0.485-0.249-1.02-0.373-1.605-0.373h-5.685v13.461h1.331v-4.964h3.981l3.16,4.964h1.493
		l-3.297-5.2C-503.838,507.852-503.427,507.69-503.066,507.441z M-509.648,506.994v-6.158h4.28c0.373,0,0.722,0.087,1.057,0.249
		c0.336,0.174,0.622,0.398,0.871,0.672c0.249,0.274,0.435,0.597,0.585,0.97c0.149,0.373,0.224,0.771,0.224,1.169
		s-0.062,0.784-0.187,1.157c-0.124,0.361-0.311,0.697-0.535,0.983c-0.224,0.299-0.498,0.522-0.821,0.697
		c-0.323,0.174-0.684,0.261-1.07,0.261H-509.648z"/>
	<path class="st0" d="M-490.576,504.605c-0.423-0.473-0.945-0.834-1.543-1.107c-0.597-0.274-1.257-0.411-1.978-0.411
		c-0.709,0-1.356,0.137-1.966,0.411c-0.61,0.261-1.132,0.634-1.568,1.095s-0.771,0.995-1.02,1.605
		c-0.249,0.622-0.373,1.269-0.373,1.966c0,0.709,0.124,1.368,0.373,1.991s0.585,1.169,1.033,1.642
		c0.448,0.473,0.97,0.846,1.568,1.12c0.597,0.274,1.257,0.411,1.978,0.411c0.473,0,0.933-0.062,1.381-0.174
		c0.448-0.112,0.846-0.286,1.219-0.51c0.373-0.224,0.697-0.485,0.97-0.784c0.286-0.299,0.498-0.622,0.647-0.995l-1.12-0.299
		c-0.112,0.274-0.286,0.51-0.498,0.734c-0.212,0.224-0.46,0.411-0.722,0.56c-0.261,0.149-0.56,0.274-0.871,0.361
		c-0.311,0.1-0.634,0.137-0.945,0.137c-0.485,0-0.933-0.087-1.356-0.274c-0.423-0.187-0.809-0.448-1.132-0.771
		c-0.336-0.336-0.597-0.722-0.809-1.169c-0.211-0.448-0.336-0.933-0.373-1.468h8.46c0-0.037,0.012-0.112,0.012-0.211v-0.299
		c0-0.684-0.124-1.331-0.361-1.941C-489.817,505.613-490.141,505.078-490.576,504.605z M-497.704,507.678
		c0.037-0.523,0.149-0.995,0.348-1.443c0.187-0.435,0.448-0.821,0.771-1.132c0.323-0.323,0.697-0.572,1.132-0.746
		s0.883-0.261,1.368-0.261s0.933,0.087,1.356,0.261c0.423,0.187,0.796,0.423,1.12,0.746s0.585,0.697,0.796,1.132
		c0.211,0.423,0.336,0.908,0.373,1.443H-497.704z"/>
</g>
<g>
	<path class="st0" d="M-480.039,501.88c1.791,0,3.334,0.983,4.155,2.438l1.966-1.057c-1.219-2.152-3.496-3.62-6.133-3.62
		c-3.894,0-7.066,3.172-7.066,7.066c0,3.894,3.172,7.066,7.066,7.066c2.476,0,4.653-1.294,5.922-3.222l-1.891-1.207
		c-0.858,1.281-2.339,2.165-4.018,2.165c-2.662,0-4.815-2.165-4.815-4.815C-484.853,504.033-482.689,501.88-480.039,501.88z"/>
	<path class="st0" d="M-463.095,504.244c-0.224-0.373-0.547-0.659-0.945-0.883s-0.921-0.336-1.568-0.336
		c-0.759,0-1.456,0.174-2.078,0.523c-0.634,0.348-1.132,0.846-1.493,1.493v-5.748h-2.538v13.846h2.538v-5.797
		c0.1-0.299,0.236-0.585,0.423-0.834c0.187-0.261,0.398-0.473,0.622-0.659c0.224-0.187,0.473-0.323,0.722-0.423
		c0.249-0.1,0.498-0.149,0.722-0.149c0.535,0,0.945,0.187,1.232,0.56c0.286,0.373,0.435,0.945,0.435,1.729v5.573h2.538v-6.208
		c0-0.498-0.05-0.97-0.137-1.443C-462.709,505.028-462.871,504.605-463.095,504.244z"/>
	<path class="st0" d="M-451.027,510.216v-3.085c0-1.331-0.386-2.351-1.182-3.048c-0.784-0.697-1.891-1.045-3.322-1.045
		c-1.468,0-2.849,0.423-4.13,1.269l0.771,1.605c0.535-0.361,1.045-0.647,1.555-0.834c0.51-0.199,1.02-0.286,1.555-0.286
		c0.722,0,1.281,0.187,1.655,0.535c0.373,0.361,0.56,0.858,0.56,1.518v0.572c-0.336-0.137-0.709-0.249-1.132-0.323
		c-0.423-0.075-0.858-0.112-1.294-0.112c-0.622,0-1.182,0.075-1.704,0.236c-0.522,0.162-0.97,0.373-1.344,0.659
		c-0.373,0.274-0.659,0.61-0.871,1.008s-0.311,0.821-0.311,1.294c0,0.46,0.087,0.883,0.261,1.257
		c0.162,0.373,0.398,0.709,0.709,0.995c0.311,0.274,0.672,0.498,1.082,0.659c0.411,0.162,0.858,0.236,1.344,0.236
		c0.722,0,1.406-0.149,2.015-0.448c0.634-0.311,1.169-0.746,1.617-1.331l0.062,0.547c0.062,0.361,0.224,0.647,0.485,0.858
		s0.622,0.323,1.107,0.323c0.311,0,0.684-0.05,1.12-0.137v-2.165c-0.224-0.012-0.373-0.075-0.473-0.187
		C-450.977,510.676-451.027,510.477-451.027,510.216z M-453.565,509.917c0,0.261-0.149,0.51-0.423,0.722
		c-0.211,0.249-0.51,0.46-0.896,0.61s-0.796,0.224-1.219,0.224c-0.473,0-0.883-0.149-1.207-0.411
		c-0.336-0.286-0.498-0.634-0.498-1.07c0-0.46,0.199-0.833,0.622-1.132c0.423-0.299,0.958-0.448,1.617-0.448
		c0.323,0,0.659,0.025,1.02,0.1c0.348,0.062,0.684,0.162,0.983,0.274V509.917z"/>
	<path class="st0" d="M-441.995,503.112c-0.062-0.025-0.137-0.025-0.199-0.025h-0.311c-0.261,0-0.535,0.05-0.821,0.162
		c-0.286,0.1-0.572,0.261-0.846,0.46c-0.274,0.199-0.535,0.435-0.771,0.709c-0.236,0.274-0.448,0.585-0.622,0.921v-2.127h-2.326
		v9.928h2.538v-6.009c0.261-0.572,0.697-0.995,1.306-1.281c0.61-0.286,1.294-0.435,2.065-0.448h-0.012L-441.995,503.112
		L-441.995,503.112z"/>
	<path class="st0" d="M-432.403,504.941c-0.386-0.585-0.858-1.045-1.443-1.393c-0.585-0.348-1.257-0.523-2.028-0.523
		c-0.684,0-1.306,0.124-1.879,0.398c-0.56,0.261-1.057,0.622-1.456,1.095c-0.398,0.46-0.722,1.008-0.945,1.63
		c-0.236,0.61-0.348,1.281-0.348,2.003c0,0.684,0.112,1.331,0.323,1.941c0.211,0.61,0.523,1.145,0.921,1.605
		c0.386,0.46,0.858,0.834,1.406,1.095c0.535,0.261,1.145,0.398,1.816,0.398c0.684,0,1.319-0.149,1.941-0.46
		c0.597-0.311,1.057-0.746,1.381-1.319v1.244c0,0.485-0.075,0.908-0.236,1.257c-0.149,0.348-0.373,0.647-0.647,0.871
		c-0.274,0.224-0.597,0.386-0.958,0.498c-0.361,0.112-0.746,0.162-1.132,0.162c-0.647,0-1.257-0.124-1.829-0.398
		c-0.572-0.261-1.045-0.622-1.431-1.095l-1.381,1.344c0.535,0.659,1.169,1.169,1.903,1.53s1.655,0.547,2.737,0.547
		c0.796,0,1.53-0.112,2.202-0.323c0.672-0.224,1.257-0.535,1.742-0.933c0.485-0.411,0.858-0.896,1.145-1.48
		c0.274-0.585,0.411-1.244,0.411-1.978v-9.455h-2.214L-432.403,504.941L-432.403,504.941z M-432.752,509.482
		c-0.087,0.224-0.211,0.448-0.373,0.647c-0.162,0.211-0.361,0.386-0.572,0.535s-0.448,0.274-0.697,0.361
		c-0.249,0.087-0.522,0.137-0.796,0.137c-0.386,0-0.746-0.075-1.082-0.224c-0.323-0.149-0.61-0.348-0.858-0.622
		c-0.249-0.274-0.448-0.585-0.585-0.933c-0.137-0.348-0.211-0.722-0.211-1.132c0-0.386,0.062-0.771,0.174-1.132
		c0.124-0.373,0.299-0.697,0.522-0.983c0.236-0.286,0.51-0.51,0.821-0.684c0.311-0.174,0.659-0.261,1.057-0.261
		c0.535,0,1.045,0.187,1.53,0.535c0.485,0.361,0.846,0.821,1.07,1.406V509.482L-432.752,509.482z"/>
	<path class="st0" d="M-417.748,506.185c-0.236-0.622-0.572-1.157-1.02-1.63c-0.448-0.473-0.995-0.846-1.63-1.12
		c-0.647-0.286-1.368-0.423-2.177-0.423c-0.809,0-1.543,0.149-2.19,0.423c-0.647,0.286-1.194,0.659-1.655,1.132
		c-0.46,0.473-0.809,1.033-1.045,1.655c-0.236,0.634-0.361,1.294-0.361,2.003c0,0.684,0.124,1.331,0.373,1.953
		c0.249,0.622,0.61,1.157,1.057,1.63c0.46,0.46,1.008,0.834,1.655,1.107c0.647,0.274,1.368,0.411,2.165,0.411
		c1.12,0,2.078-0.236,2.836-0.759c0.796-0.485,1.393-1.107,1.754-1.866l-2.177-0.61c-0.162,0.411-0.473,0.734-0.921,0.983
		c-0.448,0.249-0.921,0.373-1.431,0.373c-0.323,0-0.647-0.062-0.945-0.174s-0.572-0.286-0.809-0.498
		c-0.236-0.211-0.435-0.473-0.585-0.771c-0.149-0.299-0.249-0.647-0.286-1.045h7.676c0.025-0.1,0.037-0.224,0.05-0.373
		c0.012-0.149,0.012-0.311,0.012-0.473C-417.4,507.441-417.512,506.807-417.748,506.185z M-419.988,507.329h-5.163
		c0.025-0.373,0.112-0.709,0.261-1.008c0.149-0.299,0.336-0.56,0.56-0.771c0.224-0.211,0.485-0.373,0.784-0.498
		c0.299-0.124,0.622-0.187,0.958-0.187c0.697,0,1.294,0.224,1.779,0.672C-420.324,505.986-420.05,506.583-419.988,507.329
		L-419.988,507.329z"/>
</g>
</svg>
