<svg xmlns="http://www.w3.org/2000/svg" width="96" height="68" viewBox="0 0 96 68"><path fill="#F7E8D7" d="M4 0h88c2.2 0 4 1.8 4 4v60c0 2.2-1.8 4-4 4H4c-2.2 0-4-1.8-4-4V4c0-2.2 1.8-4 4-4z"/><path fill="#F48221" d="M96 46.4V64c0 2.2-1.8 4-4 4H20.1C54.9 64.8 78.4 56.6 96 46.4z"/><path fill="#190F04" d="M83 39.7h-2.6l-3-4.2h-.3v4.2H75V29.2h3.2c2.5 0 3.9 1.1 3.9 3.1 0 1.6-.9 2.7-2.5 3l3.4 4.4zm-3.2-7.3c0-1-.7-1.6-2.1-1.6H77V34h.6c1.5.1 2.2-.5 2.2-1.6zm-12.3-3.2h6.1V31h-3.9v2.3h3.8v1.8h-3.8V38h3.9v1.8h-6.1V29.2zM60.6 40l-4.7-10.8h2.3l2.9 7.1 3-7.1h2.3L61.7 40h-1.1zm-19.5 0c-3.3 0-5.8-2.4-5.8-5.5 0-3 2.6-5.5 5.9-5.5.9 0 1.7.2 2.6.6V32c-.9-.8-1.7-1.2-2.7-1.2-2 0-3.6 1.6-3.6 3.6 0 2.1 1.5 3.6 3.7 3.6 1 0 1.7-.3 2.6-1.1v2.4c-1 .5-1.8.7-2.7.7zm-6.5-3.5c0 2-1.6 3.4-3.8 3.4-1.6 0-2.8-.6-3.8-2l1.4-1.3c.5.9 1.3 1.4 2.3 1.4 1 0 1.7-.6 1.7-1.5 0-.4-.2-.8-.6-1.1-.2-.1-.6-.3-1.5-.6-2-.7-2.7-1.4-2.7-2.9 0-1.7 1.5-3 3.4-3 1.2 0 2.3.4 3.2 1.2l-1.1 1.4c-.6-.6-1.1-.8-1.7-.8-.9 0-1.6.5-1.6 1.2 0 .6.4.9 1.7 1.3 2.4.9 3.1 1.7 3.1 3.3zm-10.5-7.3h2.1v10.5h-2.1V29.2zm-7 10.5H14V29.2h3.2c3.5 0 5.9 2.2 5.9 5.3 0 1.5-.7 3-2 4-1.1.9-2.3 1.2-4 1.2zm2.6-7.8c-.7-.7-1.6-.9-3-.9h-.6v7h.6c1.4 0 2.3-.3 2.9-.8.7-.6 1.2-1.6 1.2-2.6.1-1.1-.4-2.1-1.1-2.7z"/><path fill="#F48221" d="M50.5 29c-3.2 0-5.9 2.4-5.9 5.4 0 3.2 2.5 5.5 5.9 5.5 3.3 0 5.9-2.4 5.9-5.5-.1-3-2.6-5.4-5.9-5.4z"/><path opacity=".2" fill="#FFF" d="M4 68c-2.2 0-4-1.8-4-4V4c0-2.2 1.8-4 4-4h88c2.2 0 4 1.8 4 4"/></svg>